<svg xmlns="http://www.w3.org/2000/svg" aria-hidden="true" style="position:absolute;width:0;height:0;overflow:hidden">
  <defs>
    <symbol id="search" viewBox="0 0 32 32">
      <path d="M13.333 24a10.603 10.603 0 0 0 6.529-2.251l5.861 5.861 1.885-1.885-5.861-5.861a10.602 10.602 0 0 0 2.252-6.531c0-5.881-4.785-10.667-10.667-10.667S2.665 7.451 2.665 13.333C2.665 19.214 7.45 24 13.332 24zm0-18.667c4.412 0 8 3.588 8 8s-3.588 8-8 8-8-3.588-8-8 3.588-8 8-8z"/>
    </symbol>
    <symbol id="error-search" viewBox="0 0 32 32">
      <path d="M16 6.4a6.3 6.3 0 0 0-6.294 6.294h3.2c0-1.707 1.389-3.094 3.094-3.094s3.094 1.387 3.094 3.094c0 .957-.77 1.651-1.946 2.602-.384.301-.753.621-1.106.958-1.597 1.595-1.643 3.29-1.643 3.478v1.067h3.2l-.002-1.013c.002-.026.053-.618.706-1.269.24-.24.542-.48.856-.733 1.246-1.01 3.133-2.534 3.133-5.091A6.3 6.3 0 0 0 16 6.398zm-1.6 16h3.2v3.2h-3.2v-3.2z"/>
      <path d="M16 0C7.178 0 0 7.178 0 16s7.178 16 16 16 16-7.178 16-16S24.822 0 16 0zm0 28.8C8.942 28.8 3.2 23.058 3.2 16S8.942 3.2 16 3.2c7.058 0 12.8 5.742 12.8 12.8S23.058 28.8 16 28.8z"/>
    </symbol>
    <symbol id="filter-arrow-down" viewBox="0 0 48 32">
      <path d="M41.172 1.172 24 18.344 6.828 1.172 1.172 6.828 24 29.656 46.828 6.828l-5.656-5.656z"/>
    </symbol>
    <symbol id="logo-icon" viewBox="0 0 32 32">
      <path  d="M17.284 3.195c0.38-0.041 0.82 0.038 1.185 0.142 0.828 0.235 1.5 0.738 1.899 1.455 0.239 0.413 0.38 0.908 0.38 1.437 0 0.34-0.058 0.667-0.166 0.97l0.006-0.020c-0.347 0.976-1.092 1.467-2.022 1.917l0.010 2.845c0.665 0.189 1.312 0.403 1.915 0.729 1.387 0.749 2.336 2.013 2.734 3.45 0.42 1.508 0.182 3.109-0.665 4.453-0.776 1.218-2.013 2.117-3.495 2.461-1.936 0.45-3.577-0.037-5.24-0.958-0.735 0.732-1.462 1.473-2.179 2.222 0.321 0.704 0.427 1.444 0.214 2.192-0.208 0.732-0.758 1.359-1.462 1.729-0.789 0.416-1.688 0.492-2.553 0.262-0.858-0.229-1.58-0.725-1.999-1.469-0.413-0.732-0.448-1.589-0.18-2.371 0.304-0.888 0.925-1.435 1.797-1.841 0.939-0.342 1.715-0.23 2.631 0.078 0.762-0.748 1.481-1.534 2.252-2.275-0.847-1.548-1.122-2.866-0.681-4.572-0.959-0.417-1.883-0.903-2.843-1.321-0.513 0.497-1.139 0.838-1.875 0.954-0.878 0.138-1.804-0.085-2.525-0.565-0.715-0.483-1.185-1.218-1.301-2.033-0.119-0.791 0.105-1.662 0.648-2.286 0.561-0.644 1.43-1.032 2.309-1.117 0.863-0.078 1.724 0.167 2.392 0.681 0.855 0.667 1.101 1.496 1.205 2.484 0.909 0.52 1.952 0.921 2.899 1.384 1.233-1.358 2.134-1.787 3.931-2.303l0.002-2.824c-0.322-0.12-0.643-0.266-0.923-0.458-0.709-0.488-1.175-1.225-1.29-2.039-0.107-0.811 0.139-1.628 0.682-2.269 0.593-0.694 1.387-1.009 2.307-1.123zM21.247 17.242c-0.183-1.943-2.015-3.383-4.101-3.225-2.105 0.16-3.668 1.885-3.483 3.844s2.046 3.406 4.148 3.222c2.084-0.183 3.618-1.898 3.435-3.841zM27.277 12.525c0.089-0.004 0.175-0.005 0.264 0.007 0.277 0.038 0.549 0.162 0.702 0.388 0.162 0.24 0.184 0.56 0.206 0.838 0.11 1.377 0.028 2.809 0.028 4.191 0 1.128 0.134 2.658-0.091 3.745-0.071 0.342-0.314 0.505-0.604 0.69-0.111 0.013-0.227 0.027-0.339 0.021-0.25-0.013-0.486-0.117-0.648-0.294-0.16-0.176-0.155-0.529-0.169-0.749-0.102-1.583-0.016-3.218-0.014-4.807 0.001-0.902-0.132-2.63 0.071-3.436 0.073-0.288 0.352-0.439 0.595-0.593zM24.727 14.736c0.299 0.052 0.565 0.157 0.74 0.399 0.269 0.375 0.277 4.041 0.142 4.564-0.074 0.286-0.34 0.426-0.591 0.563-0.288-0.016-0.668-0.040-0.86-0.273-0.287-0.346-0.263-4.244-0.1-4.732 0.095-0.284 0.408-0.404 0.67-0.521z"></path>
    </symbol>
    <symbol id="error-circle" viewBox="0 0 32 32">
      <path d="M15.938 2.667C8.621 2.667 2.667 8.648 2.667 16S8.648 29.333 16 29.333 29.333 23.352 29.333 16 23.324 2.667 15.937 2.667zm.063 24C10.12 26.667 5.334 21.882 5.334 16S10.09 5.333 15.938 5.333c5.917 0 10.729 4.785 10.729 10.667S21.882 26.667 16 26.667z"/>
      <path d="M14.667 9.333h2.667v9.333h-2.667V9.333zm0 10.667h2.667v2.667h-2.667V20z"/>
    </symbol>
    <symbol id="filter-arrow-up" viewBox="0 0 48 32">
      <path d="m1.172 25.172 5.656 5.656L24 13.656l17.172 17.172 5.656-5.656L24 2.344 1.172 25.172z"/>
    </symbol>
    <symbol id="burger" viewBox="0 0 32 32">
      <path d="M5.333 8h21.333v2.667H5.333V8zm5.334 6.667h16v2.667h-16v-2.667zm6.666 6.666h9.333V24h-9.333v-2.667z"/>
    </symbol>
    <symbol id="close" viewBox="0 0 32 32">
      <path d="m29.671 28.728-.943.943a1.333 1.333 0 0 1-1.886 0L16 18.829 5.158 29.671a1.333 1.333 0 0 1-1.886 0l-.943-.943a1.333 1.333 0 0 1 0-1.886L13.171 16 2.329 5.158a1.333 1.333 0 0 1 0-1.886l.943-.943a1.333 1.333 0 0 1 1.886 0L16 13.171 26.842 2.329a1.333 1.333 0 0 1 1.886 0l.943.943a1.333 1.333 0 0 1 0 1.886L18.829 16l10.842 10.842a1.333 1.333 0 0 1 0 1.886z"/>
    </symbol>
    <symbol id="youtube" viewBox="0 0 32 32">
      <path d="M27.639 9.981a3.199 3.199 0 0 0-2.255-2.261c-2.004-.55-10.024-.559-10.024-.559s-8.018-.009-10.024.517a3.272 3.272 0 0 0-2.261 2.275c-.529 2.004-.534 6.162-.534 6.162s-.005 4.178.52 6.162a3.204 3.204 0 0 0 2.257 2.259c2.025.55 10.022.559 10.022.559s8.019.009 10.024-.516a3.221 3.221 0 0 0 2.262-2.257c.53-2.003.534-6.159.534-6.159s.026-4.179-.521-6.184zm-14.844 9.987.006-7.68 6.665 3.846-6.671 3.834z"/>
    </symbol>
    <symbol id="facebook" viewBox="0 0 32 32">
      <path d="M28.16 16.51c0-7.112-5.731-12.878-12.8-12.878S2.56 9.398 2.56 16.51c0 6.428 4.681 11.756 10.8 12.722v-8.999h-3.25V16.51h3.25v-2.837c0-3.228 1.911-5.01 4.835-5.01 1.401 0 2.865.252 2.865.252v3.169h-1.614c-1.59 0-2.086.993-2.086 2.011v2.416h3.55l-.567 3.723H17.36v8.999c6.119-.966 10.8-6.294 10.8-12.722z"/>
    </symbol>
    <symbol id="star" viewBox="0 0 32 32">
      <path d="M14.513 2.109c.55-1.306 2.423-1.306 2.973 0l3.246 7.71a1.61 1.61 0 0 0 1.358.975l8.426.667c1.428.113 2.006 1.873.919 2.793l-6.419 5.432a1.58 1.58 0 0 0-.519 1.577l1.961 8.123c.332 1.376-1.183 2.464-2.405 1.727L16.84 26.76a1.627 1.627 0 0 0-1.679 0l-7.214 4.353c-1.222.737-2.738-.35-2.405-1.727l1.961-8.123c.14-.58-.06-1.189-.519-1.577l-6.42-5.432c-1.088-.92-.509-2.68.919-2.793l8.426-.667a1.61 1.61 0 0 0 1.358-.975l3.246-7.71z"/>
    </symbol>
    <symbol id="arrow-down" viewBox="0 0 32 32">
      <path d="m31.33 15.949-3.232-3.232-9.813 9.813V.619h-4.571V22.53l-9.813-9.813-3.232 3.232 15.33 15.33 15.33-15.33z"/>
    </symbol>
    <symbol id="arrow-right" viewBox="0 0 17 32">
      <path d="m0 31.878 17.067-14.933L0 2.012v29.867z"/>
    </symbol>
    <symbol id="arrow-right-fill" viewBox="0 0 24 32">
      <path d="M.858 31.818a1.603 1.603 0 0 0 1.653-.103l20.8-14.4a1.604 1.604 0 0 0 .506-2.057 1.604 1.604 0 0 0-.506-.573L2.511.285A1.596 1.596 0 0 0 0 1.6v28.8a1.598 1.598 0 0 0 .858 1.417zM3.2 4.654 19.589 16 3.2 27.346V4.655z"/>
    </symbol>
    <symbol id="logo" viewBox="0 0 110 32">
      <path d="M16.403.142c.434-.05.936.047 1.354.174.945.288 1.714.905 2.169 1.785.474.902.564 1.957.252 2.927-.397 1.196-1.247 1.797-2.309 2.35l.012 3.489c.759.231 1.498.495 2.187.894 1.584.919 2.669 2.467 3.123 4.23a7.205 7.205 0 0 1-.76 5.459c-.887 1.493-2.3 2.597-3.993 3.019-2.211.552-4.086-.047-5.986-1.176a156.6 156.6 0 0 0-2.489 2.725c.366.864.487 1.77.244 2.687-.237.897-.866 1.666-1.67 2.121-.901.51-1.928.603-2.916.321-.981-.281-1.805-.889-2.284-1.801-.472-.897-.511-1.949-.206-2.907.348-1.089 1.057-1.759 2.053-2.257 1.072-.419 1.958-.281 3.005.096.872-.917 1.693-1.88 2.574-2.789-.968-1.898-1.281-3.515-.778-5.606-1.096-.511-2.153-1.108-3.249-1.62-.586.61-1.301 1.028-2.142 1.169-1.003.169-2.061-.105-2.885-.694a3.671 3.671 0 0 1-1.486-2.493c-.135-.97.12-2.038.741-2.803.64-.789 1.634-1.265 2.637-1.37a3.727 3.727 0 0 1 2.734.836c.976.818 1.258 1.834 1.376 3.045 1.039.637 2.229 1.129 3.312 1.698 1.409-1.665 2.439-2.191 4.492-2.824l.002-3.463a4.767 4.767 0 0 1-1.055-.561 3.715 3.715 0 0 1-1.473-2.501 3.76 3.76 0 0 1 .779-2.782C14.446.669 15.353.282 16.404.143zm4.528 17.225a4.35 4.35 0 1 0-8.663.76 4.35 4.35 0 0 0 8.662-.76zM102.107 11.958c.708.001 1.415.011 2.124.029l-.004 3.742c.546-.424 1.14-.739 1.831-.843.933-.141 1.884.1 2.637.669.908.687 1.384 1.844 1.523 2.949.175 1.401-.154 2.749-1.019 3.866-.574.554-1.263.941-2.057 1.072-1.165.191-2.088-.216-2.998-.894l-.004.817-2.032-.003-.001-11.404zm3.64 4.904c-.632.21-1.07.51-1.378 1.118-.342.675-.365 1.508-.099 2.211.204.538.585 1.004 1.118 1.244.385.175.749.18 1.164.155.66-.249 1.103-.569 1.402-1.229.311-.689.307-1.52.011-2.214-.228-.533-.632-.963-1.177-1.174-.341-.131-.682-.149-1.042-.111zM41.272 11.936c1.246 3.84 2.84 7.575 4.055 11.425l-2.296.003c-.269-.822-.529-1.752-.939-2.512-.268-.115-.586-.076-.873-.073a122.7 122.7 0 0 1-3.323-.012c-.348.849-.628 1.722-.903 2.596l-2.339-.002c1.221-3.833 2.677-7.617 3.996-11.42.872.019 1.749-.001 2.622-.005zm-1.308 2.839c-.483 1.374-.934 2.768-1.464 4.125l1.681-.001 1.306-.015c-.184-.518-1.25-3.88-1.524-4.109zM89.685 11.961l2.196.013c-.03 2.647-.007 5.298-.007 7.945-.001 1.093.11 2.287-.013 3.365l-.121.083h-2.058l-.004-4.889c-1.645-.046-3.303-.005-4.949-.003l.001 4.894-2.209-.004.009-11.401 2.2.005.002 4.662h4.957l-.003-4.67zM93.202 15.121c.729.021 1.46.013 2.188.017-.009 1.165-.193 4.384.089 5.347.111.38.333.728.693.913.541.278 1.09.117 1.628-.072.238-.266.443-.515.561-.859.386-1.123.18-4.006.174-5.343.694.019 1.391.004 2.085 0-.016.8-.003 1.603-.004 2.404l.011 5.834c-.683.01-1.365.005-2.047-.015l-.063-.074a1.94 1.94 0 0 0-.018-.487c-.639.277-1.209.697-1.936.712-.843.017-1.758-.245-2.363-.852-.459-.459-.739-1.076-.883-1.703-.31-1.348-.127-4.332-.113-5.824zM63.686 14.891c1.089-.085 2.224-.008 3.104.725.617.514.816 1.13.883 1.897l-1.968-.002c-.113-.21-.226-.454-.404-.619a1.505 1.505 0 0 0-1.078-.377c-.298.016-.679.135-.865.387-.113.154-.175.311-.132.503.224 1.009 2.79.884 3.607 1.419.52.341.919.951 1.034 1.56a2.289 2.289 0 0 1-.409 1.775c-.627.865-1.593 1.175-2.599 1.329-.931.056-2.011-.194-2.756-.761-.699-.532-.95-1.185-1.045-2.025.663.001 1.326-.005 1.989-.018.039.125.082.245.145.361.289.533.865.651 1.4.808.353-.081.831-.172 1.082-.457.151-.172.204-.471.14-.691-.245-.843-2.703-.943-3.556-1.468-.505-.311-.876-.764-1.011-1.349-.121-.53-.075-1.125.223-1.59.538-.84 1.28-1.185 2.216-1.408zM76.93 14.889c.62-.05 1.227-.047 1.831.117.697.189 1.438.578 1.79 1.239.169.317.3.886.186 1.237-.565.122-1.255.04-1.835.033-.085-.287-.158-.509-.391-.707a1.415 1.415 0 0 0-1.062-.322c-.3.031-.685.178-.852.447-.1.16-.141.325-.078.509.362 1.068 2.535.814 3.38 1.297.538.308.988.848 1.141 1.454.164.65.056 1.372-.319 1.931-.56.835-1.449 1.149-2.388 1.331-.922.114-1.989-.082-2.759-.613-.791-.545-1.028-1.229-1.206-2.123l1.973-.015c.12.302.229.537.485.746.341.279.745.406 1.184.347.341-.045.676-.202.88-.487.133-.187.2-.414.136-.642-.247-.878-2.426-.823-3.29-1.288-.584-.315-1.046-.838-1.231-1.481a2.017 2.017 0 0 1 .196-1.599c.477-.81 1.353-1.206 2.231-1.409zM52.641 12.857c.655.023 1.315.009 1.97.011-.007.74.004 1.48.032 2.219l1.944.001-.004 1.694-1.851-.001c.001 1.066-.243 3.817.246 4.641.382.301 1.145.189 1.609.183l-.007 1.404c.004.145.004.218-.07.344-.259.124-.524.152-.81.154-.752.007-1.791-.129-2.331-.693-1.086-1.131-.739-4.457-.734-6.035l-1.254.002.004-1.698 1.249.008.007-2.236zM69.54 12.848l1.934.011c-.015.741.016 1.485.03 2.226l1.976-.004-.003 1.702-1.859-.001c.023 1.015-.226 3.85.234 4.617.494.295 1.113.216 1.669.215-.007.489.003.979.005 1.469l-.023.186c-.191.202-.486.194-.747.2-.794.019-1.891-.107-2.467-.71-1.075-1.126-.74-4.405-.731-5.978l-1.323.001c-.017-.564-.01-1.129-.015-1.692l1.318.007.004-2.249zM27.821 11.582c.102-.005.2-.007.302.008.316.046.628.198.802.476.185.294.21.687.235 1.028.125 1.688.032 3.444.032 5.138 0 1.384.153 3.26-.104 4.592-.081.419-.359.619-.691.846-.127.015-.259.033-.387.026a1.043 1.043 0 0 1-.74-.361c-.183-.216-.177-.648-.193-.919-.116-1.942-.018-3.946-.016-5.893.001-1.107-.151-3.225.082-4.213.083-.353.402-.539.68-.727zM50.243 15.058l.278-.003c.329.368.166 1.535.155 2.018-.696-.007-1.354-.035-1.899.471-1.023.949-.678 4.425-.688 5.82-.548-.005-1.617.195-2.035-.154l-.022-.346c.01-2.586-.055-5.169-.038-7.754.664.021 1.33.007 1.994.003l-.023 1.142c.123-.177.246-.366.389-.527.503-.568 1.186-.619 1.891-.669zM57.795 15.092l2.086.001.005 8.275-2.11-.003.019-8.273zM24.906 14.293c.343.063.645.192.845.489.308.459.316 4.955.162 5.596-.084.351-.388.522-.675.691-.33-.02-.763-.049-.983-.335-.327-.425-.3-5.203-.114-5.802.108-.348.466-.495.765-.639zM58.701 11.683a1.153 1.153 0 1 1 .27 2.29 1.153 1.153 0 0 1-.27-2.29z"/>
    </symbol>
    <symbol id="instagram" viewBox="0 0 31 32">
      <path d="M20.631 4.585h-10.542c-3.639 0-6.589 2.95-6.589 6.589v10.542c0 3.639 2.95 6.589 6.589 6.589h10.542c3.639 0 6.589-2.95 6.589-6.589v-10.542c0-3.639-2.95-6.589-6.589-6.589zM24.913 21.716c-0.007 2.362-1.921 4.275-4.283 4.283h-10.542c-2.362-0.007-4.275-1.921-4.283-4.283v-10.542c0.007-2.362 1.921-4.275 4.283-4.283h10.542c2.362 0.007 4.275 1.921 4.283 4.283v10.542zM21.619 11.503c0.728 0 1.318-0.59 1.318-1.318s-0.59-1.318-1.318-1.318c-0.728 0-1.318 0.59-1.318 1.318s0.59 1.318 1.318 1.318zM15.36 10.515c-3.275 0-5.93 2.655-5.93 5.93s2.655 5.93 5.93 5.93c3.275 0 5.93-2.655 5.93-5.93 0.004-1.574-0.62-3.084-1.733-4.197s-2.623-1.737-4.197-1.733zM11.736 16.445c0 2.001 1.623 3.624 3.624 3.624s3.624-1.623 3.624-3.624c0-2.001-1.623-3.624-3.624-3.624s-3.624 1.623-3.624 3.624z"></path>
    </symbol>
    <symbol id="icon-left-arrow-alt" viewBox="0 0 31 32">
      <path d="M16.265 22.612l-5.495-5.495h12.27v-2.56h-12.27l5.495-5.495-1.81-1.81-8.585 8.585 8.585 8.585 1.81-1.81z"></path>
    </symbol>
    <symbol id="icon-right-arrow-alt" viewBox="0 0 31 32">
      <path d="M14.455 22.612l1.81 1.81 8.585-8.585-8.585-8.585-1.81 1.81 5.495 5.495h-12.27v2.56h12.27l-5.495 5.495z"></path>
    </symbol>
    <symbol id="icon-Close" viewBox="0 0 32 32">
      <path d="M22.835 22.364l-0.471 0.471c-0.26 0.26-0.682 0.26-0.943 0l-5.421-5.421-5.421 5.421c-0.26 0.26-0.682 0.26-0.943 0l-0.471-0.471c-0.26-0.26-0.26-0.682 0-0.943l5.421-5.421-5.421-5.421c-0.26-0.26-0.26-0.682 0-0.943l0.471-0.471c0.26-0.26 0.682-0.26 0.943 0l5.421 5.421 5.421-5.421c0.26-0.26 0.683-0.26 0.943 0l0.471 0.471c0.26 0.26 0.26 0.682 0 0.943l-5.421 5.421 5.421 5.421c0.26 0.26 0.26 0.683 0 0.943z"></path>
    </symbol>
  </defs>
</svg>
